#!OML:ASF H:\Dans Jumps\Project 1\Capture day 1\Session 1\subject.ASF
:FULLY-SPECIFIED
:DEGREES
647
root 0.585704 17.7235 2.42928 6.04303 -0.355576 -1.66103
lowerback -0.51701 -0.2901 -0.367339
upperback 3.39955 -0.429825 1.57916
thorax 3.80146 -0.253269 1.81602
lowerneck -12.1624 0.129808 -1.76364
upperneck 37.1444 0.211866 1.24928
head 14.9235 0.007726 0.86913
rclavicle 1.04362e-015 5.1684e-015
rhumerus -27.8089 -18.5775 -78.3872
rradius 23.1152
rwrist 34.9169
rhand -18.1738 -26.4244
rfingers 7.12502
rthumb 8.10264 -56.249
lclavicle 1.04362e-015 5.1684e-015
lhumerus -24.0451 0.493729 87.4806
lradius 16.7497
lwrist 0.665218
lhand -23.6534 -2.92532
lfingers 7.12502
lthumb 2.81208 27.0359
rfemur -15.536 -2.7721 19.8313
rtibia 22.0091
rfoot -11.1148 -2.60222
rtoes 13.0163
lfemur -14.2205 7.90415 -17.7471
ltibia 19.436
lfoot -8.72474 4.21416
ltoes -1.64677
648
root 0.585087 17.7235 2.42736 6.03489 -0.35628 -1.65821
lowerback -0.50418 -0.287587 -0.374754
upperback 3.39177 -0.426119 1.57907
thorax 3.78604 -0.251528 1.82026
lowerneck -12.1647 0.131971 -1.76426
upperneck 37.1542 0.215661 1.24878
head 14.9287 0.00916435 0.869766
rclavicle -7.8023e-015 3.97569e-015
rhumerus -27.7178 -18.369 -78.5213
rradius 23.2369
rwrist 34.7187
rhand -18.1796 -26.4201
rfingers 7.12502
rthumb 8.09702 -56.245
lclavicle -7.8023e-015 3.97569e-015
lhumerus -23.9832 0.471976 87.454
lradius 16.841
lwrist 0.782001
lhand -23.5809 -2.74166
lfingers 7.12502
lthumb 2.8821 27.2186
rfemur -15.5366 -2.7715 19.8298
rtibia 22.0134
rfoot -11.1121 -2.5979
rtoes 13.0483
lfemur -14.2179 7.90417 -17.7473
ltibia 19.4361
lfoot -8.72184 4.21236
ltoes -1.63469
649
root 0.584469 17.7234 2.42538 6.02738 -0.356726 -1.65931
lowerback -0.49175 -0.285409 -0.379094
upperback 3.38161 -0.422995 1.5814
thorax 3.7684 -0.249997 1.82525
lowerneck -12.1653 0.135 -1.76867
upperneck 37.167 0.221043 1.25031
head 14.9349 0.0110028 0.87221
rclavicle 7.70291e-015 -2.5842e-015
rhumerus -27.6162 -18.169 -78.6536
rradius 23.3542
rwrist 34.531
rhand -18.1862 -26.4241
rfingers 7.12502
rthumb 8.09067 -56.2492
lclavicle 7.70291e-015 -2.5842e-015
lhumerus -23.9114 0.444971 87.4321
lradius 16.9322
lwrist 0.898679
lhand -23.5112 -2.57994
lfingers 7.12502
lthumb 2.9494 27.3794
rfemur -15.5378 -2.76611 19.8328
rtibia 22.0171
rfoot -11.1073 -2.5995
rtoes 13.0587
lfemur -14.2175 7.90471 -17.7431
ltibia 19.4381
lfoot -8.71892 4.20981
ltoes -1.62331
650
root 0.583855 17.7234 2.42334 6.02092 -0.356756 -1.66266
lowerback -0.480789 -0.282765 -0.380469
upperback 3.36987 -0.419336 1.58456
thorax 3.74993 -0.248108 1.82944
lowerneck -12.1646 0.137272 -1.77463
upperneck 37.1807 0.225274 1.25305
head 14.9413 0.0122979 0.875258
rclavicle 8.44835e-016 3.37934e-015
rhumerus -27.5039 -17.9911 -78.7812
rradius 23.4639
rwrist 34.3665
rhand -18.1928 -26.4255
rfingers 7.12502
rthumb 8.08424 -56.2509
lclavicle 8.44835e-016 3.37934e-015
lhumerus -23.8284 0.408369 87.4143
lradius 17.0191
lwrist 1.00367
lhand -23.4634 -2.47866
lfingers 7.12502
lthumb 2.99563 27.48
rfemur -15.5407 -2.75896 19.8387
rtibia 22.0212
rfoot -11.1008 -2.6053
rtoes 13.0493
lfemur -14.2192 7.90203 -17.7361
ltibia 19.4408
lfoot -8.71486 4.20875
ltoes -1.60614
651
root 0.58326 17.7233 2.4213 6.01481 -0.357523 -1.66684
lowerback -0.470819 -0.280264 -0.380707
upperback 3.35617 -0.415896 1.58825
thorax 3.72998 -0.246281 1.83353
lowerneck -12.16 0.140103 -1.78322
upperneck 37.1938 0.230068 1.2583
head 14.9465 0.0138009 0.879887
rclavicle -1.09332e-015 -1.19271e-014
rhumerus -27.3821 -17.8201 -78.909
rradius 23.5698
rwrist 34.2116
rhand -18.2058 -26.4225
rfingers 7.12502
rthumb 8.07172 -56.2483
lclavicle -1.09332e-015 -1.19271e-014
lhumerus -23.74 0.362917 87.4012
lradius 17.1223
lwrist 1.1274
lhand -23.4027 -2.37859
lfingers 7.12502
lthumb 3.05423 27.5793
rfemur -15.5453 -2.75004 19.8456
rtibia 22.0277
rfoot -11.0949 -2.61441
rtoes 13.0227
lfemur -14.221 7.89729 -17.7281
ltibia 19.4421
lfoot -8.70699 4.21053
ltoes -1.59838
652
root 0.58266 17.7231 2.41915 6.00888 -0.358126 -1.66915
lowerback -0.461384 -0.277473 -0.38229
upperback 3.3422 -0.41203 1.59182
thorax 3.71006 -0.24428 1.83825
lowerneck -12.1571 0.141407 -1.78961
upperneck 37.207 0.233919 1.25841
head 14.9521 0.0145226 0.881838
rclavicle -5.61567e-015 1.78906e-015
rhumerus -27.2533 -17.637 -79.0434
rradius 23.6845
rwrist 34.0434
rhand -18.2208 -26.4252
rfingers 7.12502
rthumb 8.05721 -56.2517
lclavicle -5.61567e-015 1.78906e-015
lhumerus -23.6405 0.302311 87.3941
lradius 17.2362
lwrist 1.26658
lhand -23.3601 -2.28558
lfingers 7.12502
lthumb 3.09535 27.6717
rfemur -15.5515 -2.73917 19.8506
rtibia 22.0364
rfoot -11.0901 -2.62673
rtoes 12.9942
lfemur -14.2223 7.89001 -17.7221
ltibia 19.4403
lfoot -8.69591 4.21422
ltoes -1.59348
653
root 0.582112 17.723 2.41706 6.00502 -0.359635 -1.6616
lowerback -0.457403 -0.275742 -0.393389
upperback 3.32862 -0.409305 1.59312
thorax 3.69373 -0.243119 1.84592
lowerneck -12.1539 0.141962 -1.7963
upperneck 37.2161 0.237678 1.25589
head 14.9556 0.0148232 0.882674
rclavicle -4.96962e-015 -1.39149e-015
rhumerus -27.1172 -17.4293 -79.1879
rradius 23.811
rwrist 33.8514
rhand -18.2453 -26.4194
rfingers 7.12502
rthumb 8.03363 -56.2467
lclavicle -4.96962e-015 -1.39149e-015
lhumerus -23.5335 0.226131 87.3933
lradius 17.3638
lwrist 1.43342
lhand -23.2952 -2.1377
lfingers 7.12502
lthumb 3.15804 27.8187
rfemur -15.5609 -2.73036 19.8442
rtibia 22.0466
rfoot -11.0871 -2.6357
rtoes 12.9821
lfemur -14.2239 7.88135 -17.7277
ltibia 19.4348
lfoot -8.68295 4.21914
ltoes -1.5918
654
root 0.581624 17.7229 2.41502 5.99855 -0.362215 -1.65172
lowerback -0.454272 -0.273693 -0.405441
upperback 3.31725 -0.406137 1.59358
thorax 3.68015 -0.241777 1.85327
lowerneck -12.1511 0.140785 -1.80299
upperneck 37.2218 0.239498 1.25162
head 14.9577 0.0140871 0.882436
rclavicle -2.98177e-015 -1.86858e-014
rhumerus -26.9805 -17.1757 -79.3479
rradius 23.9663
rwrist 33.6104
rhand -18.2592 -26.4319
rfingers 7.12502
rthumb 8.02016 -56.2597
lclavicle -2.98177e-015 -1.86858e-014
lhumerus -23.4172 0.135758 87.3974
lradius 17.501
lwrist 1.61675
lhand -23.2807 -2.06618
lfingers 7.12502
lthumb 3.17206 27.89
rfemur -15.5667 -2.72441 19.8348
rtibia 22.0555
rfoot -11.0853 -2.64022
rtoes 12.9915
lfemur -14.2218 7.87586 -17.7362
ltibia 19.4282
lfoot -8.66924 4.2224
ltoes -1.59817
655
root 0.581203 17.7228 2.41302 5.99143 -0.365633 -1.64285
lowerback -0.453784 -0.271486 -0.415067
upperback 3.30855 -0.402849 1.59351
thorax 3.67081 -0.240329 1.85871
lowerneck -12.1529 0.138499 -1.80679
upperneck 37.2247 0.239432 1.24592
head 14.9596 0.0127753 0.880776
rclavicle 4.42296e-015 -1.33186e-014
rhumerus -26.8384 -16.9 -79.5166
rradius 24.1403
rwrist 33.349
rhand -18.2752 -26.437
rfingers 7.12502
rthumb 8.0047 -56.2654
lclavicle 4.42296e-015 -1.33186e-014
lhumerus -23.2906 0.041595 87.4019
lradius 17.6484
lwrist 1.81214
lhand -23.3031 -2.04422
lfingers 7.12502
lthumb 3.15044 27.9123
rfemur -15.5705 -2.71962 19.8258
rtibia 22.0614
rfoot -11.0833 -2.64029
rtoes 13.0135
lfemur -14.2186 7.87257 -17.744
ltibia 19.4219
lfoot -8.65743 4.22535
ltoes -1.60484
